<svg xmlns="http://www.w3.org/2000/svg" style="" viewBox="1244.16 379.59 306.34 480.21"><rect id="backgroundrect" width="100%" height="100%" x="0" y="0" fill="none" stroke="none"/>
  
<g class="currentLayer" style=""><title>Layer 1</title><path id="Flamenco" fill="#000000" stroke="black" stroke-width="1" d="M 1260.00,486.00            C 1260.00,471.13 1259.07,447.05 1269.39,435.10              1273.74,430.06 1279.03,429.79 1285.79,422.00              1303.27,391.27 1310.08,417.42 1310.00,425.00              1310.73,437.09 1280.36,525.45 1281.00,541.00              1280.70,566.70 1285.58,599.93 1318.00,601.25              1353.09,602.18 1355.09,563.27 1373.96,565.64              1378.82,567.30 1380.94,575.50 1382.28,580.00              1385.88,592.14 1386.23,604.50 1387.09,617.00              1385.21,614.18 1398.58,831.12 1391.12,833.75              1388.54,840.79 1367.36,837.64 1356.43,842.17              1352.26,845.05 1353.31,854.82 1357.64,857.55              1360.56,859.38 1400.02,863.16 1402.75,847.25              1398.88,839.88 1398.35,657.22 1397.00,647.00              1399.19,650.34 1404.42,659.62 1408.83,652.72              1412.40,647.11 1405.29,637.28 1406.12,627.62              1402.25,609.25 1480.57,590.09 1486.04,590.09              1490.48,588.49 1490.54,582.24 1489.25,578.38              1487.29,572.50 1480.37,573.20 1473.00,563.00              1482.13,561.29 1511.25,541.38 1550.00,573.00              1547.84,559.01 1515.38,510.62 1481.10,489.00              1467.88,456.00 1448.93,453.64 1443.43,446.61              1443.43,446.61 1452.13,448.13 1452.13,448.13              1452.13,448.13 1444.83,437.52 1444.83,437.52              1444.83,437.52 1452.26,438.09 1452.26,438.09              1433.82,411.45 1405.45,422.00 1384.18,431.82              1374.00,438.55 1347.09,458.55 1335.44,504.00              1334.22,511.53 1339.45,566.36 1328.55,568.73              1287.64,592.36 1297.45,515.09 1303.58,506.00              1309.76,484.84 1340.36,414.18 1311.56,388.53              1300.73,381.64 1266.91,363.64 1252.99,418.00              1250.28,424.59 1239.45,444.18 1247.71,461.00              1249.65,467.75 1253.02,483.56 1260.00,486.00 Z            M 1471.38,579.62            C 1473.88,583.38 1403.75,601.75 1394.62,611.62              1393.12,615.88 1390.25,580.25 1394.31,579.60              1396.01,578.77 1449.12,579.25 1460.00,571.14              1464.62,570.25 1471.88,578.38 1471.38,579.62 Z" class="selected" fill-opacity="1"/></g></svg>