<svg viewBox="0 0 259 230" fill="none" xmlns="http://www.w3.org/2000/svg">
<rect x="4" y="4" width="251" height="222" fill="white" stroke="black" stroke-width="8"/>
<path d="M116.532 61.9935C116.532 56.0977 116.136 46.5504 120.529 41.8124C122.381 39.8141 124.634 39.7071 127.512 36.6185C134.954 24.4345 137.853 34.8026 137.819 37.8079C138.13 42.6014 125.2 77.6348 125.472 83.8001C125.345 93.9897 127.422 107.165 141.225 107.688C156.165 108.057 157.016 92.6298 165.05 93.5694C167.12 94.2276 168.022 97.4788 168.593 99.263C170.125 104.076 170.274 108.977 170.641 113.933C169.84 112.815 175.532 198.828 172.356 199.871C171.258 202.662 162.24 201.413 157.587 203.209C155.812 204.351 156.259 208.225 158.102 209.307C159.345 210.033 176.146 211.531 177.308 205.223C175.66 202.301 175.435 129.879 174.86 125.827C175.792 127.152 178.019 130.831 179.896 128.095C181.416 125.871 178.389 121.974 178.743 118.144C177.095 110.86 210.44 103.263 212.769 103.263C214.659 102.629 214.685 100.151 214.135 98.6206C213.301 96.2893 210.355 96.5669 207.217 92.5227C211.104 91.8447 223.502 83.9507 240 96.4876C239.08 90.9408 225.26 71.7549 210.666 63.1829C205.037 50.0989 196.969 49.1632 194.627 46.3759L198.332 46.9786L195.223 42.7719L198.387 42.9979C190.536 32.4356 178.457 36.6185 169.402 40.512C165.067 43.1803 153.61 51.11 148.65 69.1302C148.131 72.1157 150.358 93.8549 145.717 94.7946C128.299 104.163 132.476 73.5272 135.086 69.9231C137.717 61.5335 150.745 33.518 138.483 23.3482C133.873 20.6164 119.474 13.4797 113.547 35.0325C112.393 37.6454 107.782 45.4125 111.299 52.0814C112.125 54.7576 113.56 61.026 116.532 61.9935ZM206.527 99.1123C207.592 100.603 177.734 107.886 173.846 111.8C173.208 113.489 171.986 99.3621 173.715 99.1044C174.438 98.7753 197.05 98.9656 201.682 95.7501C203.649 95.3972 206.74 98.6207 206.527 99.1123Z" fill="black"/>
<mask id="path-3-outside-1_1_11" maskUnits="userSpaceOnUse" x="8" y="8" width="91" height="214" fill="black">
<rect fill="white" x="8" y="8" width="91" height="214"/>
<path d="M8 8H91V222H8V8Z"/>
</mask>
<path d="M8 8H91V222H8V8Z" fill="#C55A10"/>
<path d="M83 8V222H99V8H83Z" fill="black" mask="url(#path-3-outside-1_1_11)"/>
<rect x="30" y="16" width="2" height="66" fill="white"/>
<rect x="72" y="16" width="2" height="66" fill="white"/>
<rect x="72" y="148" width="2" height="66" fill="white"/>
<rect x="30" y="148" width="2" height="66" fill="white"/>
<path d="M64 32L63.9767 41.5076C61.1511 38.8353 63.2674 33.9806 54.6977 32.8235V66.1765H58.186V67H44.814V66.1765H48.3023V32.8235C40.7035 33.8488 42.4535 38.51 39.0233 41.4871L39 32H64Z" fill="black"/>
<path d="M63.2196 163.373L60.8784 164.581C59.224 164.07 57.2887 163.373 55.4157 163.148C47.4401 162.189 42.7423 166.087 40.9239 169.412C38.6218 173.62 39.0276 176.442 39.0276 180.686C39.0276 184.732 38.9417 188.963 42.0477 192.764C46.2227 197.857 55.9854 199.798 60.2463 196.033L64 197.596V188.335H62.4392C62.2207 190.755 60.7458 196.231 55.4157 197.016C48.6732 198.014 47.6665 191.689 47.6118 189.543V172.231C47.6196 170.246 47.846 167.089 50.0701 165.43C51.545 164.327 53.5896 163.659 56.0323 164.492C60.4961 166.01 60.0434 169.783 63.2196 171.828V163.373Z" fill="black"/>
<g filter="url(#filter0_d_1_11)">
<rect x="29" y="82" width="46" height="66" fill="black"/>
</g>
<path d="M40 97.924V97.1088C44.3294 97.1088 54.0174 96.5055 57.4608 98.1401C61.8379 100.219 63.7744 111.628 55.3863 113.006C64.8621 115.158 58.368 127.321 61.753 129.795C61.753 129.795 63.6099 130.329 65 128.544C63.8275 132.783 58.4741 133.064 56.1555 129.709C54.5004 127.315 55.6901 115.942 53.75 114.5C52.4342 113.522 50.712 113.446 49.0195 113.413V130.94H51.6723V131.756H40V130.94H43.1834C43.1834 130.94 43.6927 99.6237 42.3345 98.5762C41.6341 98.0341 40.8913 98.0381 40 97.924Z" fill="white"/>
<path d="M49.1667 97.875V112.868C50.7476 112.863 52.6626 113.038 53.7846 111.906C55.4952 110.527 55.4326 102.728 54.5971 100.522C53.7617 98.3162 50.3486 97.8833 49.1667 97.875Z" fill="black"/>
<defs>
<filter id="filter0_d_1_11" x="9" y="62" width="86" height="106" filterUnits="userSpaceOnUse" color-interpolation-filters="sRGB">
<feFlood flood-opacity="0" result="BackgroundImageFix"/>
<feColorMatrix in="SourceAlpha" type="matrix" values="0 0 0 0 0 0 0 0 0 0 0 0 0 0 0 0 0 0 127 0" result="hardAlpha"/>
<feMorphology radius="10" operator="dilate" in="SourceAlpha" result="effect1_dropShadow_1_11"/>
<feOffset/>
<feGaussianBlur stdDeviation="5"/>
<feComposite in2="hardAlpha" operator="out"/>
<feColorMatrix type="matrix" values="0 0 0 0 0 0 0 0 0 0 0 0 0 0 0 0 0 0 0.5 0"/>
<feBlend mode="normal" in2="BackgroundImageFix" result="effect1_dropShadow_1_11"/>
<feBlend mode="normal" in="SourceGraphic" in2="effect1_dropShadow_1_11" result="shape"/>
</filter>
</defs>
</svg>
